<svg width="22" height="22" viewBox="0 0 22 22" xmlns="http://www.w3.org/2000/svg">
    <path fill-rule="evenodd" clip-rule="evenodd"
        d="M21.6472 0.352922C22.1176 0.823342 22.1176 1.58604 21.6472 2.05646L2.05646 21.6472C1.58604 22.1176 0.82334 22.1176 0.35292 21.6472C-0.1175 21.1768 -0.1175 20.4141 0.35292 19.9436L19.9436 0.352922C20.4141 -0.117498 21.1768 -0.117498 21.6472 0.352922Z" />
    <path fill-rule="evenodd" clip-rule="evenodd"
        d="M21.6471 21.6471C21.1767 22.1175 20.414 22.1175 19.9435 21.6471L0.352815 2.05636C-0.117605 1.58594 -0.117605 0.823234 0.352815 0.352815C0.823235 -0.117605 1.58594 -0.117605 2.05636 0.352815L21.6471 19.9435C22.1175 20.414 22.1175 21.1767 21.6471 21.6471Z" />
</svg>