<svg width="26" height="26" viewBox="0 0 26 26" xmlns="http://www.w3.org/2000/svg">
    <path fill-rule="evenodd" clip-rule="evenodd"
        d="M2 22C2 21.4477 2.44772 21 3 21H23C23.5523 21 24 21.4477 24 22C24 22.5523 23.5523 23 23 23H3C2.44772 23 2 22.5523 2 22Z" />
    <path fill-rule="evenodd" clip-rule="evenodd"
        d="M20.0711 13.3431L13.7072 19.7071C13.3166 20.0976 12.6835 20.0976 12.2929 19.7071L5.92898 13.3431C5.53846 12.9526 5.53846 12.3195 5.92898 11.9289C6.31951 11.5384 6.95267 11.5384 7.3432 11.9289L12.0001 16.5858L12.0001 3L14.0001 3L14.0001 16.5858L18.6569 11.9289C19.0474 11.5384 19.6806 11.5384 20.0711 11.9289C20.4616 12.3195 20.4616 12.9526 20.0711 13.3431Z" />
</svg>